<svg width="88" height="88" viewBox="0 0 88 88" fill="none" xmlns="http://www.w3.org/2000/svg">
<rect x="1" y="1" width="86" height="86" rx="43" fill="white"/>
<rect x="1" y="1" width="86" height="86" rx="43" stroke="black" stroke-width="2"/>
<path d="M68.129 58.0356C68.129 59.2068 67.6396 60.3299 66.7685 61.1581C65.8973 61.9862 64.7158 62.4514 63.4838 62.4514H21.6774C20.4454 62.4514 19.2639 61.9862 18.3928 61.1581C17.5216 60.3299 17.0322 59.2068 17.0322 58.0356V33.7489C17.0322 32.5778 17.5216 31.4546 18.3928 30.6265C19.2639 29.7984 20.4454 29.3331 21.6774 29.3331H30.9677L35.6129 22.7095H49.5484L54.1935 29.3331H63.4838C64.7158 29.3331 65.8973 29.7984 66.7685 30.6265C67.6396 31.4546 68.129 32.5778 68.129 33.7489V58.0356Z" fill="black"/>
<path d="M42.5806 53.6199C47.7115 53.6199 51.8709 49.6658 51.8709 44.7883C51.8709 39.9108 47.7115 35.9568 42.5806 35.9568C37.4497 35.9568 33.2903 39.9108 33.2903 44.7883C33.2903 49.6658 37.4497 53.6199 42.5806 53.6199Z" fill="white"/>
<path d="M68.129 58.0356C68.129 59.2068 67.6396 60.3299 66.7685 61.1581C65.8973 61.9862 64.7158 62.4514 63.4838 62.4514H21.6774C20.4454 62.4514 19.2639 61.9862 18.3928 61.1581C17.5216 60.3299 17.0322 59.2068 17.0322 58.0356V33.7489C17.0322 32.5778 17.5216 31.4546 18.3928 30.6265C19.2639 29.7984 20.4454 29.3331 21.6774 29.3331H30.9677L35.6129 22.7095H49.5484L54.1935 29.3331H63.4838C64.7158 29.3331 65.8973 29.7984 66.7685 30.6265C67.6396 31.4546 68.129 32.5778 68.129 33.7489V58.0356Z" stroke="black" stroke-width="3" stroke-linecap="round" stroke-linejoin="round"/>
<path d="M42.5806 53.6199C47.7115 53.6199 51.8709 49.6658 51.8709 44.7883C51.8709 39.9108 47.7115 35.9568 42.5806 35.9568C37.4497 35.9568 33.2903 39.9108 33.2903 44.7883C33.2903 49.6658 37.4497 53.6199 42.5806 53.6199Z" stroke="black" stroke-width="3" stroke-linecap="round" stroke-linejoin="round"/>
<circle cx="58.1935" cy="38.3222" r="1.41935" fill="white"/>
</svg>
