<svg width="28" height="29" viewBox="0 0 28 29" fill="none" xmlns="http://www.w3.org/2000/svg">
  <path
    d="M2 12.5C2 5.59644 7.37258 0 14 0C20.6274 0 26 5.59644 26 12.5V20.4545C26 21.7774 26 22.4388 25.8109 22.9671C25.5068 23.8163 24.8637 24.4862 24.0484 24.803C23.5413 25 22.9063 25 21.6364 25H14C7.37258 25 2 19.4036 2 12.5Z"
    stroke="#FFF"  
    stroke-width="2" 
    fill="none"  
  />
  <path
    d="M9.5 9.9375C8.94772 9.9375 8.5 10.3852 8.5 10.9375C8.5 11.4898 8.94772 11.9375 9.5 11.9375H18.5C19.0523 11.9375 19.5 11.4898 19.5 10.9375C19.5 10.3852 19.0523 9.9375 18.5 9.9375H9.5Z"
    stroke="#FFF"
    stroke-width="1"
    fill="none" 
  />
  <path
    d="M13 17.1875C13 16.6352 13.4477 16.1875 14 16.1875H18.5C19.0523 16.1875 19.5 16.6352 19.5 17.1875C19.5 17.7398 19.0523 18.1875 18.5 18.1875H14C13.4477 18.1875 13 17.7398 13 17.1875Z"
    stroke="#FFF"
    stroke-width="1"
    fill="none" 
  />
</svg>
