<svg width="20" height="20" viewBox="0 0 20 20" fill="none" xmlns="http://www.w3.org/2000/svg">
<path d="M8.63934 3.38411C8.056 3.80557 4.16675 6.79805 4.16675 11.666C4.16675 12.432 4.31763 13.1906 4.61078 13.8983C4.90394 14.6061 5.33362 15.2491 5.87529 15.7908C6.41697 16.3325 7.06003 16.7621 7.76776 17.0553C8.45504 17.34 9.19024 17.4905 9.93369 17.499C8.12338 17.4636 6.66675 15.985 6.66675 14.1663C6.66675 14.0017 6.67868 13.8399 6.70172 13.6816C6.70271 13.6722 6.7039 13.6628 6.70531 13.6533C6.98483 11.7751 8.71283 10.1806 9.54847 9.50812C9.81549 9.29324 10.1848 9.29324 10.4518 9.50813C11.2874 10.1806 13.0153 11.7751 13.2949 13.6533C13.2963 13.6628 13.2975 13.6722 13.2984 13.6817C13.3215 13.8399 13.3334 14.0017 13.3334 14.1663C13.3334 15.985 11.8768 17.4636 10.0665 17.499C10.8099 17.4905 11.5451 17.34 12.2324 17.0553C12.9401 16.7621 13.5832 16.3325 14.1249 15.7908C14.6665 15.2491 15.0962 14.6061 15.3894 13.8983C15.6726 13.2146 15.823 12.4834 15.8329 11.7438C15.8332 11.7343 15.8334 11.7247 15.8334 11.715L15.8334 11.6887L15.8334 11.6661C15.8114 8.13219 13.4204 6.20351 12.9845 5.88118C12.9437 5.85096 12.8893 5.85131 12.8485 5.88153C12.6737 6.01082 12.1868 6.39667 11.664 7.03909C11.6044 7.11235 11.4872 7.09834 11.4468 7.01293C10.4645 4.93413 9.10368 3.67239 8.78222 3.39219C8.74074 3.35604 8.68394 3.35189 8.63934 3.38411Z" fill="#FF6152"/>
</svg>
