<svg width="183" height="34" viewBox="0 0 183 34" fill="none" xmlns="http://www.w3.org/2000/svg">
<g id="&#237;&#133;&#141;&#236;&#138;&#164;&#237;&#138;&#184;&#237;&#131;&#128;&#236;&#158;&#133; &#235;&#161;&#156;&#234;&#179;&#160;" clip-path="url(#clip0_265_797)">
<path id="Vector" d="M41.4984 11.1599C41.4984 4.98887 36.8471 0 31.1178 0C25.3884 0 20.7492 4.98887 20.7492 11.1599C20.7492 11.42 20.7734 11.6801 20.7855 11.9402H20.7129C20.725 11.6801 20.7492 11.42 20.7492 11.1599C20.7492 4.98887 16.0979 0 10.3685 0C4.6392 0 0 4.98887 0 11.1599C0 11.42 0.0242256 11.6801 0.0363384 11.9402H0V34H41.4984V11.9402H41.4621C41.4742 11.6801 41.4984 11.42 41.4984 11.1599Z" fill="#FF6152"/>
<path id="Vector_2" d="M71.9741 5.28438C58.0202 -6.78586 46.719 3.86574 59.5343 17C46.719 30.146 58.0202 40.7976 71.9741 28.7155C85.9281 40.7858 97.2293 30.1342 84.414 17C97.2293 3.85392 85.9281 -6.79768 71.9741 5.28438Z" fill="#875BEC"/>
<path id="Vector_3" d="M134.464 11.1599C134.464 4.98887 129.825 0 124.096 0C118.366 0 113.727 4.98887 113.727 11.1599C113.727 11.42 113.751 11.6801 113.763 11.9402H113.691C113.703 11.6801 113.727 11.42 113.727 11.1599C113.715 4.98887 109.076 0 103.346 0C97.617 0 92.9778 4.98887 92.9778 11.1599C92.9778 11.42 93.002 11.6801 93.0141 11.9402H92.9778V34H134.476V11.9402H134.44C134.452 11.6801 134.476 11.42 134.476 11.1599H134.464Z" fill="#FC62A0"/>
<path id="Vector_4" d="M146.286 0H135.954C137.286 4.87065 137.977 10.628 137.977 16.4444C137.977 22.6273 137.177 28.8456 135.566 34H146.649C145.051 28.822 144.239 22.6154 144.239 16.468C144.251 10.6516 144.954 4.87065 146.286 0Z" fill="#FFA808"/>
<path id="Vector_5" d="M164.952 5.28438C150.998 -6.78586 139.697 3.86574 152.512 17C139.697 30.146 150.998 40.7976 164.952 28.7155C178.906 40.7858 190.207 30.1342 177.392 17C190.207 3.85392 178.906 -6.79768 164.952 5.28438Z" fill="#7DC353"/>
<path id="Vector_6" d="M52.3031 0H43.9816V34H52.3031V0Z" fill="black"/>
</g>
<defs>
<clipPath id="clip0_265_797">
<rect width="183" height="34" fill="white"/>
</clipPath>
</defs>
</svg>
