<svg width="41" height="17" viewBox="0 0 41 17" fill="none" xmlns="http://www.w3.org/2000/svg">
<path d="M32 2.64174C25.042 -3.39781 19.4039 1.92788 25.7946 8.5C19.4039 15.0721 25.042 20.3978 32 14.3583C38.958 20.3978 44.5961 15.0721 38.2054 8.5C44.5961 1.92788 38.958 -3.39781 32 2.64174Z" fill="#875BEC"/>
<path d="M21 5.09886C21 2.27505 18.6484 0 15.7559 0C12.8634 0 10.5118 2.28648 10.5118 5.09886C10.5118 2.28648 8.16013 0 5.26764 0C2.37514 0 0 2.27505 0 5.09886V17H21V5.16745C21 5.14459 21 5.13315 21 5.11029V5.09886Z" fill="#FF6152"/>
</svg>
