<svg width="260" height="50" viewBox="0 0 260 50" fill="none" xmlns="http://www.w3.org/2000/svg">
<g clip-path="url(#clip0_209_703)">
<path d="M58.9595 16.4117C58.9595 7.33658 52.3511 0 44.211 0C36.071 0 29.4797 7.33658 29.4797 16.4117C29.4797 16.7942 29.5142 17.1766 29.5314 17.5591H29.4281C29.4453 17.1766 29.4797 16.7942 29.4797 16.4117C29.4797 7.33658 22.8713 0 14.7313 0C6.59121 0 0 7.33658 0 16.4117C0 16.7942 0.0344188 17.1766 0.0516283 17.5591H0V50H58.9595V17.5591H58.9079C58.9251 17.1766 58.9595 16.7942 58.9595 16.4117Z" fill="#FF6152"/>
<path d="M102.258 7.77112C82.4332 -9.97923 66.3768 5.68489 84.5844 24.9999C66.3768 44.3323 82.4332 59.9964 102.258 42.2287C122.084 59.979 138.14 44.3149 119.933 24.9999C138.14 5.6675 122.084 -9.99661 102.258 7.77112Z" fill="#875BEC"/>
<path d="M191.042 16.4117C191.042 7.33658 184.451 0 176.311 0C168.171 0 161.579 7.33658 161.579 16.4117C161.579 16.7942 161.614 17.1766 161.631 17.5591H161.528C161.545 17.1766 161.579 16.7942 161.579 16.4117C161.562 7.33658 154.971 0 146.831 0C138.691 0 132.1 7.33658 132.1 16.4117C132.1 16.7942 132.134 17.1766 132.151 17.5591H132.1V50H191.059V17.5591H191.007C191.025 17.1766 191.059 16.7942 191.059 16.4117H191.042Z" fill="#FC62A0"/>
<path d="M207.838 0H193.159C195.052 7.16273 196.033 15.6293 196.033 24.1829C196.033 33.2754 194.897 42.42 192.608 50H208.355C206.083 42.3853 204.93 33.258 204.93 24.2177C204.947 15.6641 205.945 7.16273 207.838 0Z" fill="#FFA808"/>
<path d="M234.358 7.77112C214.533 -9.97923 198.476 5.68489 216.684 24.9999C198.476 44.3323 214.533 59.9964 234.358 42.2287C254.183 59.979 270.239 44.3149 252.032 24.9999C270.239 5.6675 254.183 -9.99661 234.358 7.77112Z" fill="#7DC353"/>
<path d="M74.3102 0H62.4873V50H74.3102V0Z" fill="black"/>
</g>
<defs>
<clipPath id="clip0_209_703">
<rect width="260" height="50" fill="white"/>
</clipPath>
</defs>
</svg>
