<svg width="172" height="148" viewBox="0 0 172 148" fill="none" xmlns="http://www.w3.org/2000/svg">
<path d="M79.1313 97.9837C79.1313 86.5277 70.7694 77.2664 60.4425 77.2664C50.1156 77.2664 41.7537 86.5277 41.7537 97.9837C41.7537 98.4665 41.7974 98.9493 41.8192 99.4322H41.6882C41.7101 98.9493 41.7537 98.4665 41.7537 97.9837C41.7319 86.5277 33.37 77.2664 23.0431 77.2664C12.7163 77.2664 4.35437 86.5277 4.35437 97.9837C4.35437 98.4665 4.39803 98.9493 4.41987 99.4322H4.35437V140.384H79.1531V99.4322H79.0876C79.1094 98.9493 79.1531 98.4665 79.1531 97.9837H79.1313Z" fill="#FC62A0"/>
<path d="M100.44 77.2664H81.8168C84.2184 86.3082 85.4629 96.9961 85.4629 107.794C85.4629 119.272 84.0219 130.815 81.1182 140.384H101.095C98.2132 130.772 96.7504 119.25 96.7504 107.838C96.7722 97.04 98.0385 86.3082 100.44 77.2664Z" fill="#FFA808"/>
<path d="M134.084 87.0764C108.933 64.6692 88.5631 84.4428 111.662 108.825C88.5631 133.23 108.933 153.003 134.084 130.574C159.235 152.981 179.605 133.208 156.506 108.825C179.605 84.4209 159.235 64.6472 134.084 87.0764Z" fill="#7DC353"/>
<path d="M79.1531 29.4249C79.1531 17.9689 70.7694 8.70752 60.4425 8.70752C50.1157 8.70752 41.7537 17.9689 41.7537 29.4249C41.7537 29.9077 41.7974 30.3905 41.8192 30.8733H41.6882C41.7101 30.3905 41.7537 29.9077 41.7537 29.4249C41.7537 17.9689 33.37 8.70752 23.0431 8.70752C12.7163 8.70752 4.35437 17.9689 4.35437 29.4249C4.35437 29.9077 4.39804 30.3905 4.41987 30.8733H4.35437V71.8252H79.1531V30.8733H79.0876C79.1095 30.3905 79.1531 29.9077 79.1531 29.4249Z" fill="#FF6152"/>
<path d="M134.084 18.5176C108.933 -3.88965 88.563 15.884 111.662 40.2664C88.563 64.6707 108.933 84.4443 134.084 62.0152C159.235 84.4224 179.605 64.6487 156.506 40.2664C179.605 15.862 159.235 -3.9116 134.084 18.5176Z" fill="#875BEC"/>
<path d="M98.628 8.70752H83.6289V71.8252H98.628V8.70752Z" fill="black"/>
</svg>
