<svg width="25" height="25" viewBox="0 0 25 25" fill="none" xmlns="http://www.w3.org/2000/svg">
<path d="M8.78166 15.3336H3.33333C2.05 15.3336 1 16.3836 1 17.6669V24.6669H8.78166V15.3336Z" fill="black"/>
<path d="M14.2183 10.6669H11.1033C9.82 10.6669 8.77 11.7169 8.77 13.0003V24.6669H16.5517V13.0003C16.5517 11.7169 15.5133 10.6669 14.2183 10.6669Z" fill="black"/>
<path d="M22 18.8336H16.5517V24.6669H24.3333V21.1669C24.3333 19.8836 23.2833 18.8336 22 18.8336Z" fill="black"/>
<path d="M13.2733 1.41528L13.8917 2.65195C13.9733 2.82695 14.195 2.99028 14.3817 3.01361L15.5017 3.20028C16.2133 3.31695 16.3883 3.84192 15.875 4.34359L15 5.21859C14.8483 5.37026 14.7667 5.65027 14.8133 5.8486L15.0583 6.92195C15.2567 7.77362 14.8017 8.10029 14.055 7.65696L13.005 7.03862C12.8183 6.92196 12.5033 6.92196 12.3167 7.03862L11.2667 7.65696C10.52 8.10029 10.065 7.77362 10.2633 6.92195L10.5083 5.8486C10.555 5.65027 10.4733 5.35859 10.3217 5.21859L9.45833 4.35527C8.945 3.84194 9.10833 3.32859 9.83167 3.21192L10.9517 3.02529C11.1383 2.99029 11.36 2.82696 11.4417 2.66362L12.06 1.42692C12.3983 0.750258 12.935 0.750282 13.2733 1.41528Z" fill="black"/>
<path d="M16.5517 24.6669H8.77V13.0003C8.77 11.7169 9.82 10.6669 11.1033 10.6669H14.2183C15.5133 10.6669 16.5517 11.7169 16.5517 13.0003V24.6669ZM16.5517 24.6669V18.8336H22C23.2833 18.8336 24.3333 19.8836 24.3333 21.1669V24.6669H16.5517ZM8.78166 15.3336H3.33333C2.05 15.3336 1 16.3836 1 17.6669V24.6669H8.78166V15.3336ZM13.2733 1.41528L13.8917 2.65195C13.9733 2.82695 14.195 2.99028 14.3817 3.01361L15.5017 3.20028C16.2133 3.31695 16.3883 3.84192 15.875 4.34359L15 5.21859C14.8483 5.37026 14.7667 5.65027 14.8133 5.8486L15.0583 6.92195C15.2567 7.77362 14.8017 8.10029 14.055 7.65696L13.005 7.03862C12.8183 6.92196 12.5033 6.92196 12.3167 7.03862L11.2667 7.65696C10.52 8.10029 10.065 7.77362 10.2633 6.92195L10.5083 5.8486C10.555 5.65027 10.4733 5.35859 10.3217 5.21859L9.45833 4.35527C8.945 3.84194 9.10833 3.32859 9.83167 3.21192L10.9517 3.02529C11.1383 2.99029 11.36 2.82696 11.4417 2.66362L12.06 1.42692C12.3983 0.750258 12.935 0.750282 13.2733 1.41528Z" stroke="white" stroke-width="0.5" stroke-linecap="round" stroke-linejoin="round"/>
</svg>
