<svg width="22" height="25" viewBox="0 0 22 25" fill="none" xmlns="http://www.w3.org/2000/svg">
<mask id="path-1-inside-1_413_1288" fill="white">
<path d="M0 12.0185C0 9.99473 0 8.98284 0.428573 8.09338C0.857147 7.20392 1.66202 6.54539 3.27175 5.22833L4.83326 3.95074C7.74284 1.57017 9.19764 0.379883 10.9306 0.379883C12.6635 0.379883 14.1183 1.57017 17.0279 3.95074L18.5894 5.22833C20.1991 6.54539 21.004 7.20392 21.4325 8.09338C21.8611 8.98284 21.8611 9.99473 21.8611 12.0185V18.3389C21.8611 21.1495 21.8611 22.5548 20.9464 23.4279C20.0317 24.3011 18.5595 24.3011 15.6151 24.3011H6.24603C3.30162 24.3011 1.82942 24.3011 0.91471 23.4279C0 22.5548 0 21.1495 0 18.3389V12.0185Z"/>
</mask>
<path d="M14.0843 24.3011C14.0843 24.7153 14.4201 25.0511 14.8343 25.0511C15.2485 25.0511 15.5843 24.7153 15.5843 24.3011H14.0843ZM6.27678 24.3011C6.27678 24.7153 6.61257 25.0511 7.02678 25.0511C7.441 25.0511 7.77678 24.7153 7.77678 24.3011H6.27678ZM8.02678 16.1079H13.8343V14.6079H8.02678V16.1079ZM14.0843 16.3579V24.3011H15.5843V16.3579H14.0843ZM6.27678 16.3579V24.3011H7.77678V16.3579H6.27678ZM13.8343 16.1079C13.9724 16.1079 14.0843 16.2198 14.0843 16.3579H15.5843C15.5843 15.3914 14.8008 14.6079 13.8343 14.6079V16.1079ZM8.02678 14.6079C7.06029 14.6079 6.27678 15.3914 6.27678 16.3579H7.77678C7.77678 16.2198 7.88871 16.1079 8.02678 16.1079V14.6079ZM4.83326 3.95074L5.78312 5.11167L4.83326 3.95074ZM17.0279 3.95074L17.9777 2.7898H17.9777L17.0279 3.95074ZM18.5894 5.22833L17.6395 6.38927H17.6395L18.5894 5.22833ZM3.27175 5.22833L2.3219 4.0674L3.27175 5.22833ZM20.3611 12.0185V18.3389H23.3611V12.0185H20.3611ZM15.6151 22.8011H6.24603V25.8011H15.6151V22.8011ZM1.5 18.3389V12.0185H-1.5V18.3389H1.5ZM4.22161 6.38927L5.78312 5.11167L3.8834 2.7898L2.3219 4.0674L4.22161 6.38927ZM16.078 5.11167L17.6395 6.38927L19.5392 4.0674L17.9777 2.7898L16.078 5.11167ZM5.78312 5.11167C7.26726 3.89737 8.2758 3.07566 9.12311 2.54148C9.93387 2.03035 10.4509 1.87988 10.9306 1.87988V-1.12012C9.67726 -1.12012 8.60047 -0.675443 7.5232 0.00371084C6.48249 0.659814 5.30884 1.62353 3.8834 2.7898L5.78312 5.11167ZM17.9777 2.7898C16.5523 1.62353 15.3786 0.659814 14.3379 0.00371075C13.2606 -0.675443 12.1839 -1.12012 10.9306 -1.12012V1.87988C11.4102 1.87988 11.9272 2.03035 12.738 2.54148C13.5853 3.07566 14.5938 3.89737 16.078 5.11167L17.9777 2.7898ZM6.24603 22.8011C4.7333 22.8011 3.74288 22.7981 3.01017 22.7041C2.31373 22.6147 2.08039 22.4669 1.95042 22.3429L-0.121003 24.513C0.663744 25.262 1.62385 25.5508 2.6283 25.6797C3.59647 25.804 4.81435 25.8011 6.24603 25.8011V22.8011ZM-1.5 18.3389C-1.5 19.6999 -1.50349 20.8785 -1.371 21.8192C-1.23139 22.8104 -0.915567 23.7545 -0.121003 24.513L1.95042 22.3429C1.83028 22.2282 1.68874 22.0331 1.59968 21.4008C1.50349 20.7178 1.5 19.7886 1.5 18.3389H-1.5ZM20.3611 18.3389C20.3611 19.7886 20.3576 20.7178 20.2614 21.4008C20.1724 22.0331 20.0308 22.2282 19.9107 22.3429L21.9821 24.513C22.7767 23.7545 23.0925 22.8104 23.2321 21.8192C23.3646 20.8785 23.3611 19.6999 23.3611 18.3389H20.3611ZM15.6151 25.8011C17.0468 25.8011 18.2646 25.804 19.2328 25.6797C20.2373 25.5508 21.1974 25.262 21.9821 24.513L19.9107 22.3429C19.7807 22.4669 19.5474 22.6147 18.8509 22.7041C18.1182 22.7981 17.1278 22.8011 15.6151 22.8011V25.8011ZM23.3611 12.0185C23.3611 10.1366 23.3957 8.71206 22.7839 7.44227L20.0812 8.74449C20.3265 9.25361 20.3611 9.85284 20.3611 12.0185H23.3611ZM17.6395 6.38927C19.3601 7.79706 19.8311 8.22532 20.0812 8.74449L22.7839 7.44227C22.1769 6.18252 21.0381 5.29373 19.5392 4.0674L17.6395 6.38927ZM1.5 12.0185C1.5 9.85284 1.53457 9.25361 1.77989 8.74449L-0.922741 7.44227C-1.53457 8.71206 -1.5 10.1366 -1.5 12.0185H1.5ZM2.3219 4.0674C0.823051 5.29373 -0.315749 6.18252 -0.922741 7.44227L1.77989 8.74449C2.03004 8.22532 2.50098 7.79706 4.22161 6.38927L2.3219 4.0674Z" fill="#33363F" mask="url(#path-1-inside-1_413_1288)"/>
</svg>
