<svg width="26" height="26" viewBox="0 0 26 26" fill="none" xmlns="http://www.w3.org/2000/svg">
<path d="M12.4567 20.4552C12.97 20.5252 13.495 20.5601 14.0317 20.5601L18.92 23.4651C19.7483 23.9668 20.7867 23.2902 20.67 22.3218L20.215 18.6352C22.7117 16.8852 24.3333 14.0968 24.3333 10.9468C24.3333 5.63848 19.725 1.3335 14.0317 1.3335C8.33833 1.3335 3.73 5.63848 3.73 10.9468C3.73 11.2502 3.74167 11.5418 3.77667 11.8335M12.4567 20.4552C13.32 19.4402 13.8333 18.1568 13.8333 16.7685C13.8333 13.4551 10.9633 10.7719 7.41667 10.7719C6.06333 10.7719 4.81501 11.1568 3.77667 11.8335M12.4567 20.4552C11.3017 21.8552 9.47 22.7535 7.41667 22.7535L4.37167 24.5618C3.85833 24.8768 3.205 24.4451 3.275 23.8501L3.56666 21.5518C2.00333 20.4668 1 18.7285 1 16.7685C1 14.7151 2.09667 12.9068 3.77667 11.8335" stroke="#292D32" stroke-width="1.5" stroke-linecap="round" stroke-linejoin="round"/>
</svg>
