<svg width="26" height="26" viewBox="0 0 26 26" fill="none" xmlns="http://www.w3.org/2000/svg">
<path d="M16.5517 24.6665H8.77V12.9998C8.77 11.7165 9.82 10.6665 11.1033 10.6665H14.2183C15.5133 10.6665 16.5517 11.7165 16.5517 12.9998V24.6665ZM16.5517 24.6665V18.8331H22C23.2833 18.8331 24.3333 19.8831 24.3333 21.1665V24.6665H16.5517ZM8.78166 15.3331H3.33333C2.05 15.3331 1 16.3831 1 17.6665V24.6665H8.78166V15.3331ZM13.2733 1.41479L13.8917 2.65146C13.9733 2.82646 14.195 2.98979 14.3817 3.01312L15.5017 3.19979C16.2133 3.31646 16.3883 3.84144 15.875 4.3431L15 5.2181C14.8483 5.36977 14.7667 5.64978 14.8133 5.84811L15.0583 6.92146C15.2567 7.77313 14.8017 8.0998 14.055 7.65647L13.005 7.03814C12.8183 6.92147 12.5033 6.92147 12.3167 7.03814L11.2667 7.65647C10.52 8.0998 10.065 7.77313 10.2633 6.92146L10.5083 5.84811C10.555 5.64978 10.4733 5.3581 10.3217 5.2181L9.45833 4.35478C8.945 3.84145 9.10833 3.3281 9.83167 3.21143L10.9517 3.0248C11.1383 2.9898 11.36 2.82647 11.4417 2.66314L12.06 1.42644C12.3983 0.74977 12.935 0.749794 13.2733 1.41479Z" stroke="#292D32" stroke-width="1.5" stroke-linecap="round" stroke-linejoin="round"/>
</svg>
