<svg width="22" height="26" viewBox="0 0 22 26" fill="none" xmlns="http://www.w3.org/2000/svg">
<path d="M16.5812 6.19451C16.5812 9.06336 14.038 11.389 10.9007 11.389C7.7634 11.389 5.22014 9.06336 5.22014 6.19451C5.22014 3.32566 7.7634 1 10.9007 1C14.038 1 16.5812 3.32566 16.5812 6.19451Z" fill="black"/>
<path d="M1.92951 19.2965C2.84628 16.6948 5.47584 15.2849 8.23437 15.2849H13.567C16.3255 15.2849 18.9551 16.6948 19.8719 19.2965C20.3043 20.5239 20.6747 21.9331 20.798 23.3764C20.845 23.9267 20.3939 24.3753 19.8416 24.3753H1.95973C1.40744 24.3753 0.956351 23.9267 1.00337 23.3764C1.1267 21.9331 1.49702 20.5239 1.92951 19.2965Z" fill="black"/>
<path d="M16.5812 6.19451C16.5812 9.06336 14.038 11.389 10.9007 11.389C7.7634 11.389 5.22014 9.06336 5.22014 6.19451C5.22014 3.32566 7.7634 1 10.9007 1C14.038 1 16.5812 3.32566 16.5812 6.19451Z" stroke="black" stroke-width="1.5" stroke-linecap="round"/>
<path d="M1.92951 19.2965C2.84628 16.6948 5.47584 15.2849 8.23437 15.2849H13.567C16.3255 15.2849 18.9551 16.6948 19.8719 19.2965C20.3043 20.5239 20.6747 21.9331 20.798 23.3764C20.845 23.9267 20.3939 24.3753 19.8416 24.3753H1.95973C1.40744 24.3753 0.956351 23.9267 1.00337 23.3764C1.1267 21.9331 1.49702 20.5239 1.92951 19.2965Z" stroke="black" stroke-width="1.5" stroke-linecap="round"/>
</svg>
