<svg width="22" height="24" viewBox="0 0 22 24" fill="none" xmlns="http://www.w3.org/2000/svg">
<path d="M0.431296 7.73891C0 8.6313 0 9.64653 0 11.677V18.0182C0 20.8381 0 22.248 0.920522 23.124C1.75581 23.9189 3.05305 23.9925 5.5 23.9993V16.5229C5.5 14.8711 6.9071 13.532 8.64286 13.532H13.3571C15.0929 13.532 16.5 14.8711 16.5 16.5229V23.9993C18.947 23.9925 20.2442 23.9189 21.0795 23.124C22 22.248 22 20.8381 22 18.0182V11.677C22 9.64653 22 8.6313 21.5687 7.73891C21.1374 6.84653 20.3274 6.18583 18.7075 4.86443L17.136 3.58262C14.208 1.19421 12.7439 0 11 0C9.25607 0 7.79204 1.19421 4.86397 3.58262L3.29254 4.86443C1.67257 6.18583 0.862593 6.84653 0.431296 7.73891Z" fill="black"/>
<path d="M13.3571 24V16.5229H8.64286V24H13.3571Z" fill="black"/>
</svg>
