<svg width="45" height="45" viewBox="0 0 45 45" fill="none" xmlns="http://www.w3.org/2000/svg">
<rect width="45" height="45" rx="22" fill="black"/>
<path d="M34.8387 29.6773C34.8387 30.2762 34.5885 30.8505 34.143 31.274C33.6976 31.6975 33.0934 31.9354 32.4634 31.9354H11.0851C10.4551 31.9354 9.85091 31.6975 9.40545 31.274C8.95998 30.8505 8.70972 30.2762 8.70972 29.6773V17.258C8.70972 16.6591 8.95998 16.0847 9.40545 15.6613C9.85091 15.2378 10.4551 14.9999 11.0851 14.9999H15.8358L18.2112 11.6128H25.3373L27.7127 14.9999H32.4634C33.0934 14.9999 33.6976 15.2378 34.143 15.6613C34.5885 16.0847 34.8387 16.6591 34.8387 17.258V29.6773Z" fill="black"/>
<path d="M21.7742 27.4192C24.398 27.4192 26.525 25.3973 26.525 22.9031C26.525 20.4089 24.398 18.387 21.7742 18.387C19.1505 18.387 17.0235 20.4089 17.0235 22.9031C17.0235 25.3973 19.1505 27.4192 21.7742 27.4192Z" fill="black"/>
<path d="M34.8387 29.6773C34.8387 30.2762 34.5885 30.8505 34.143 31.274C33.6976 31.6975 33.0934 31.9354 32.4634 31.9354H11.0851C10.4551 31.9354 9.85091 31.6975 9.40545 31.274C8.95998 30.8505 8.70972 30.2762 8.70972 29.6773V17.258C8.70972 16.6591 8.95998 16.0847 9.40545 15.6613C9.85091 15.2378 10.4551 14.9999 11.0851 14.9999H15.8358L18.2112 11.6128H25.3373L27.7127 14.9999H32.4634C33.0934 14.9999 33.6976 15.2378 34.143 15.6613C34.5885 16.0847 34.8387 16.6591 34.8387 17.258V29.6773Z" stroke="white" stroke-width="2" stroke-linecap="round" stroke-linejoin="round"/>
<path d="M21.7742 27.4192C24.398 27.4192 26.525 25.3973 26.525 22.9031C26.525 20.4089 24.398 18.387 21.7742 18.387C19.1505 18.387 17.0235 20.4089 17.0235 22.9031C17.0235 25.3973 19.1505 27.4192 21.7742 27.4192Z" stroke="white" stroke-width="2" stroke-linecap="round" stroke-linejoin="round"/>
<circle cx="29.758" cy="19.5969" r="0.725806" fill="white"/>
</svg>
