<svg width="110" height="51" viewBox="0 0 110 51" fill="none" xmlns="http://www.w3.org/2000/svg">
<rect width="110" height="51" rx="25.5" fill="#FF6152"/>
<path d="M41.5312 18.2656V23.625H43.7031V25.0469H41.5312V32.4062H39.7969V18.2656H41.5312ZM37.6562 19.6094V21.0156H32.7812V27.5C34.9766 27.5 36.7109 27.3906 38.6562 27.0469L38.8594 28.5156C36.6719 28.8906 34.7656 28.9531 32.2188 28.9531H31.0469V19.6094H37.6562ZM50.7188 18.5469C53.8438 18.5469 55.7969 19.5781 55.8125 21.2969C55.7969 22.9844 53.8438 24 50.7188 23.9844C47.625 24 45.625 22.9844 45.625 21.2969C45.625 19.5781 47.625 18.5469 50.7188 18.5469ZM50.7188 19.9062C48.6562 19.9062 47.4219 20.3906 47.4375 21.2969C47.4219 22.1562 48.6562 22.625 50.7188 22.6406C52.7812 22.625 54.0156 22.1562 54.0156 21.2969C54.0156 20.3906 52.7812 19.9062 50.7188 19.9062ZM55.6094 27.4688V32.2188H45.8125V27.4688H55.6094ZM47.5312 28.8438V30.8125H53.9219V28.8438H47.5312ZM57.1719 24.9375V26.3438H44.2969V24.9375H57.1719Z" fill="white"/>
<path d="M78.6667 20L84 26M84 26L78.6667 32M84 26H68" stroke="white" stroke-width="2" stroke-linecap="round" stroke-linejoin="round"/>
</svg>
