<svg width="26" height="27" viewBox="0 0 26 27" fill="none" xmlns="http://www.w3.org/2000/svg">
<path d="M13.5183 24.8539C13.3132 25.2025 13.0188 25.4918 12.6646 25.693C12.3104 25.8941 11.9088 26 11.5 26C11.0912 26 10.6896 25.8941 10.3354 25.693C9.98118 25.4918 9.68678 25.2025 9.48167 24.8539M18.5 9.90122C18.5 8.0709 17.7625 6.31555 16.4497 5.02132C15.137 3.72709 13.3565 3 11.5 3C9.64348 3 7.86301 3.72709 6.55025 5.02132C5.2375 6.31555 4.5 8.0709 4.5 9.90122C4.5 17.9526 1 20.2531 1 20.2531H22C22 20.2531 18.5 17.9526 18.5 9.90122Z" stroke="#1E1E1E" stroke-width="2" stroke-linecap="round" stroke-linejoin="round"/>
</svg>
