<svg width="10" height="25" viewBox="0 0 10 25" fill="none" xmlns="http://www.w3.org/2000/svg">
<g filter="url(#filter0_d_766_1670)">
<path d="M7.5 18C7.5 18.6875 7.25521 19.276 6.76563 19.7656C6.27604 20.2552 5.6875 20.5 5 20.5C4.3125 20.5 3.72396 20.2552 3.23438 19.7656C2.74479 19.276 2.5 18.6875 2.5 18C2.5 17.3125 2.74479 16.724 3.23438 16.2344C3.72396 15.7448 4.3125 15.5 5 15.5C5.6875 15.5 6.27604 15.7448 6.76563 16.2344C7.25521 16.724 7.5 17.3125 7.5 18ZM7.5 10.5C7.5 11.1875 7.25521 11.776 6.76563 12.2656C6.27604 12.7552 5.6875 13 5 13C4.3125 13 3.72396 12.7552 3.23438 12.2656C2.74479 11.776 2.5 11.1875 2.5 10.5C2.5 9.8125 2.74479 9.22396 3.23438 8.73437C3.72396 8.24479 4.3125 8 5 8C5.6875 8 6.27604 8.24479 6.76563 8.73437C7.25521 9.22396 7.5 9.8125 7.5 10.5ZM7.5 3C7.5 3.6875 7.25521 4.27604 6.76563 4.76562C6.27604 5.25521 5.6875 5.5 5 5.5C4.3125 5.5 3.72396 5.25521 3.23438 4.76562C2.74479 4.27604 2.5 3.6875 2.5 3C2.5 2.3125 2.74479 1.72396 3.23438 1.23437C3.72396 0.744792 4.3125 0.5 5 0.5C5.6875 0.5 6.27604 0.744792 6.76563 1.23437C7.25521 1.72396 7.5 2.3125 7.5 3Z" fill="black"/>
</g>
<defs>
<filter id="filter0_d_766_1670" x="0.9" y="0.5" width="8.2" height="23.6" filterUnits="userSpaceOnUse" color-interpolation-filters="sRGB">
<feFlood flood-opacity="0" result="BackgroundImageFix"/>
<feColorMatrix in="SourceAlpha" type="matrix" values="0 0 0 0 0 0 0 0 0 0 0 0 0 0 0 0 0 0 127 0" result="hardAlpha"/>
<feOffset dy="2"/>
<feGaussianBlur stdDeviation="0.8"/>
<feComposite in2="hardAlpha" operator="out"/>
<feColorMatrix type="matrix" values="0 0 0 0 0 0 0 0 0 0 0 0 0 0 0 0 0 0 0.25 0"/>
<feBlend mode="normal" in2="BackgroundImageFix" result="effect1_dropShadow_766_1670"/>
<feBlend mode="normal" in="SourceGraphic" in2="effect1_dropShadow_766_1670" result="shape"/>
</filter>
</defs>
</svg>
