<svg width="40" height="40" viewBox="0 0 40 40" fill="none" xmlns="http://www.w3.org/2000/svg">
<circle cx="20" cy="20" r="19" fill="black" stroke="white" stroke-width="2"/>
<path d="M21.7138 13.891C21.6849 13.9196 21.66 13.9514 21.6392 13.9855L13.9723 21.6524C13.9595 21.6653 13.9468 21.6779 13.9343 21.6905C13.7114 21.913 13.5355 22.0887 13.4119 22.307C13.2883 22.5252 13.2282 22.7666 13.152 23.0721C13.1477 23.0893 13.1434 23.1067 13.1389 23.1243L12.3649 26.2207L12.3573 26.2509C12.3037 26.4652 12.2506 26.6772 12.2335 26.8518C12.215 27.0409 12.2232 27.3254 12.4493 27.5516L12.8028 27.198L12.4493 27.5516C12.6754 27.7777 12.9599 27.7858 13.149 27.7673C13.3237 27.7502 13.5356 27.6972 13.7499 27.6436C13.76 27.641 13.7701 27.6385 13.7802 27.636L16.8765 26.8619C16.8941 26.8575 16.9115 26.8532 16.9287 26.8489C17.2343 26.7727 17.4756 26.7125 17.6939 26.589L17.4475 26.1539L17.6939 26.589C17.9121 26.4654 18.0879 26.2894 18.3104 26.0666C18.3229 26.054 18.3356 26.0413 18.3484 26.0285L26.9983 17.3787L27.0213 17.3556C27.2463 17.1307 27.4502 16.9268 27.6268 16.7381L29.4431 14.9339C29.5373 14.8402 29.5905 14.7129 29.5907 14.58C29.5909 14.4471 29.5382 14.3196 29.4442 14.2256L25.7753 10.5566C25.5804 10.3618 25.2646 10.3613 25.0692 10.5555L21.7138 13.891Z" stroke="white" stroke-linejoin="round"/>
<path d="M21.5383 13.4277L26.5733 18.4627" stroke="white"/>
</svg>
