<svg width="20" height="20" viewBox="0 0 20 20" fill="none" xmlns="http://www.w3.org/2000/svg">
<path d="M1 8C1 6.11438 1 5.17157 1.58579 4.58579C2.17157 4 3.11438 4 5 4H15C16.8856 4 17.8284 4 18.4142 4.58579C19 5.17157 19 6.11438 19 8H1Z" fill="#33363F"/>
<path d="M5 11C5 10.5286 5 10.2929 5.14645 10.1464C5.29289 10 5.5286 10 6 10H8C8.4714 10 8.70711 10 8.85355 10.1464C9 10.2929 9 10.5286 9 11C9 11.4714 9 11.7071 8.85355 11.8536C8.70711 12 8.4714 12 8 12H6C5.5286 12 5.29289 12 5.14645 11.8536C5 11.7071 5 11.4714 5 11Z" fill="#33363F"/>
<path d="M5 15C5 14.5286 5 14.2929 5.14645 14.1464C5.29289 14 5.5286 14 6 14H8C8.4714 14 8.70711 14 8.85355 14.1464C9 14.2929 9 14.5286 9 15C9 15.4714 9 15.7071 8.85355 15.8536C8.70711 16 8.4714 16 8 16H6C5.5286 16 5.29289 16 5.14645 15.8536C5 15.7071 5 15.4714 5 15Z" fill="#33363F"/>
<path d="M11 11C11 10.5286 11 10.2929 11.1464 10.1464C11.2929 10 11.5286 10 12 10H14C14.4714 10 14.7071 10 14.8536 10.1464C15 10.2929 15 10.5286 15 11C15 11.4714 15 11.7071 14.8536 11.8536C14.7071 12 14.4714 12 14 12H12C11.5286 12 11.2929 12 11.1464 11.8536C11 11.7071 11 11.4714 11 11Z" fill="#33363F"/>
<path d="M11 15C11 14.5286 11 14.2929 11.1464 14.1464C11.2929 14 11.5286 14 12 14H14C14.4714 14 14.7071 14 14.8536 14.1464C15 14.2929 15 14.5286 15 15C15 15.4714 15 15.7071 14.8536 15.8536C14.7071 16 14.4714 16 14 16H12C11.5286 16 11.2929 16 11.1464 15.8536C11 15.7071 11 15.4714 11 15Z" fill="#33363F"/>
<path d="M5.5 1C5.5 0.723858 5.27614 0.5 5 0.5C4.72386 0.5 4.5 0.723858 4.5 1H5.5ZM15.5 1C15.5 0.723858 15.2761 0.5 15 0.5C14.7239 0.5 14.5 0.723858 14.5 1H15.5ZM5 4.5H15V3.5H5V4.5ZM18.5 8V15H19.5V8H18.5ZM15 18.5H5V19.5H15V18.5ZM1.5 15V8H0.5V15H1.5ZM5 18.5C4.04306 18.5 3.37565 18.4989 2.87208 18.4312C2.3829 18.3655 2.12385 18.2452 1.93934 18.0607L1.23223 18.7678C1.63351 19.169 2.13876 19.3416 2.73883 19.4223C3.32452 19.5011 4.07133 19.5 5 19.5V18.5ZM0.5 15C0.5 15.9287 0.498938 16.6755 0.577682 17.2612C0.65836 17.8612 0.830955 18.3665 1.23223 18.7678L1.93934 18.0607C1.75483 17.8762 1.63453 17.6171 1.56876 17.1279C1.50106 16.6244 1.5 15.9569 1.5 15H0.5ZM18.5 15C18.5 15.9569 18.4989 16.6244 18.4312 17.1279C18.3655 17.6171 18.2452 17.8762 18.0607 18.0607L18.7678 18.7678C19.169 18.3665 19.3416 17.8612 19.4223 17.2612C19.5011 16.6755 19.5 15.9287 19.5 15H18.5ZM15 19.5C15.9287 19.5 16.6755 19.5011 17.2612 19.4223C17.8612 19.3416 18.3665 19.169 18.7678 18.7678L18.0607 18.0607C17.8762 18.2452 17.6171 18.3655 17.1279 18.4312C16.6244 18.4989 15.9569 18.5 15 18.5V19.5ZM15 4.5C15.9569 4.5 16.6244 4.50106 17.1279 4.56876C17.6171 4.63453 17.8762 4.75483 18.0607 4.93934L18.7678 4.23223C18.3665 3.83096 17.8612 3.65836 17.2612 3.57768C16.6755 3.49894 15.9287 3.5 15 3.5V4.5ZM19.5 8C19.5 7.07133 19.5011 6.32452 19.4223 5.73883C19.3416 5.13876 19.169 4.63351 18.7678 4.23223L18.0607 4.93934C18.2452 5.12385 18.3655 5.3829 18.4312 5.87208C18.4989 6.37565 18.5 7.04306 18.5 8H19.5ZM5 3.5C4.07133 3.5 3.32452 3.49894 2.73883 3.57768C2.13876 3.65836 1.63351 3.83096 1.23223 4.23223L1.93934 4.93934C2.12385 4.75483 2.3829 4.63453 2.87208 4.56876C3.37565 4.50106 4.04306 4.5 5 4.5V3.5ZM1.5 8C1.5 7.04306 1.50106 6.37565 1.56876 5.87208C1.63453 5.3829 1.75483 5.12385 1.93934 4.93934L1.23223 4.23223C0.830955 4.63351 0.658359 5.13876 0.577682 5.73883C0.498938 6.32452 0.5 7.07133 0.5 8H1.5ZM19 7.5H1V8.5H19V7.5ZM4.5 1V4H5.5V1H4.5ZM14.5 1V4H15.5V1H14.5ZM6 10.5H8V9.5H6V10.5ZM8 11.5H6V12.5H8V11.5ZM6 11.5C5.75016 11.5 5.61308 11.4989 5.51799 11.4862C5.43727 11.4753 5.46484 11.4648 5.5 11.5L4.79289 12.2071C4.9745 12.3887 5.19314 12.4515 5.38474 12.4772C5.56196 12.5011 5.77843 12.5 6 12.5V11.5ZM4.5 11C4.5 11.2216 4.49894 11.438 4.52276 11.6153C4.54852 11.8069 4.61129 12.0255 4.79289 12.2071L5.5 11.5C5.53516 11.5352 5.5247 11.5627 5.51385 11.482C5.50106 11.3869 5.5 11.2498 5.5 11H4.5ZM8.5 11C8.5 11.2498 8.49894 11.3869 8.48615 11.482C8.4753 11.5627 8.46484 11.5352 8.5 11.5L9.20711 12.2071C9.38871 12.0255 9.45148 11.8069 9.47724 11.6153C9.50106 11.438 9.5 11.2216 9.5 11H8.5ZM8 12.5C8.22157 12.5 8.43804 12.5011 8.61526 12.4772C8.80686 12.4515 9.0255 12.3887 9.20711 12.2071L8.5 11.5C8.53516 11.4648 8.56273 11.4753 8.48201 11.4862C8.38692 11.4989 8.24984 11.5 8 11.5V12.5ZM8 10.5C8.24984 10.5 8.38692 10.5011 8.48201 10.5138C8.56273 10.5247 8.53516 10.5352 8.5 10.5L9.20711 9.79289C9.0255 9.61129 8.80686 9.54852 8.61526 9.52276C8.43804 9.49894 8.22157 9.5 8 9.5V10.5ZM9.5 11C9.5 10.7784 9.50106 10.562 9.47724 10.3847C9.45148 10.1931 9.38871 9.9745 9.20711 9.79289L8.5 10.5C8.46484 10.4648 8.4753 10.4373 8.48615 10.518C8.49894 10.6131 8.5 10.7502 8.5 11H9.5ZM6 9.5C5.77843 9.5 5.56196 9.49894 5.38474 9.52276C5.19314 9.54852 4.9745 9.61129 4.79289 9.79289L5.5 10.5C5.46484 10.5352 5.43727 10.5247 5.51799 10.5138C5.61308 10.5011 5.75016 10.5 6 10.5V9.5ZM5.5 11C5.5 10.7502 5.50106 10.6131 5.51385 10.518C5.5247 10.4373 5.53516 10.4648 5.5 10.5L4.79289 9.79289C4.61129 9.9745 4.54852 10.1931 4.52276 10.3847C4.49894 10.562 4.5 10.7784 4.5 11H5.5ZM6 14.5H8V13.5H6V14.5ZM8 15.5H6V16.5H8V15.5ZM6 15.5C5.75016 15.5 5.61308 15.4989 5.51799 15.4862C5.43727 15.4753 5.46484 15.4648 5.5 15.5L4.79289 16.2071C4.9745 16.3887 5.19314 16.4515 5.38474 16.4772C5.56196 16.5011 5.77843 16.5 6 16.5V15.5ZM4.5 15C4.5 15.2216 4.49894 15.438 4.52276 15.6153C4.54852 15.8069 4.61129 16.0255 4.79289 16.2071L5.5 15.5C5.53516 15.5352 5.5247 15.5627 5.51385 15.482C5.50106 15.3869 5.5 15.2498 5.5 15H4.5ZM8.5 15C8.5 15.2498 8.49894 15.3869 8.48615 15.482C8.4753 15.5627 8.46484 15.5352 8.5 15.5L9.20711 16.2071C9.38871 16.0255 9.45148 15.8069 9.47724 15.6153C9.50106 15.438 9.5 15.2216 9.5 15H8.5ZM8 16.5C8.22157 16.5 8.43804 16.5011 8.61526 16.4772C8.80686 16.4515 9.0255 16.3887 9.20711 16.2071L8.5 15.5C8.53516 15.4648 8.56273 15.4753 8.48201 15.4862C8.38692 15.4989 8.24984 15.5 8 15.5V16.5ZM8 14.5C8.24984 14.5 8.38692 14.5011 8.48201 14.5138C8.56273 14.5247 8.53516 14.5352 8.5 14.5L9.20711 13.7929C9.0255 13.6113 8.80686 13.5485 8.61526 13.5228C8.43804 13.4989 8.22157 13.5 8 13.5V14.5ZM9.5 15C9.5 14.7784 9.50106 14.562 9.47724 14.3847C9.45148 14.1931 9.38871 13.9745 9.20711 13.7929L8.5 14.5C8.46484 14.4648 8.4753 14.4373 8.48615 14.518C8.49894 14.6131 8.5 14.7502 8.5 15H9.5ZM6 13.5C5.77843 13.5 5.56196 13.4989 5.38474 13.5228C5.19314 13.5485 4.9745 13.6113 4.79289 13.7929L5.5 14.5C5.46484 14.5352 5.43727 14.5247 5.51799 14.5138C5.61308 14.5011 5.75016 14.5 6 14.5V13.5ZM5.5 15C5.5 14.7502 5.50106 14.6131 5.51385 14.518C5.5247 14.4373 5.53516 14.4648 5.5 14.5L4.79289 13.7929C4.61129 13.9745 4.54852 14.1931 4.52276 14.3847C4.49894 14.562 4.5 14.7784 4.5 15H5.5ZM12 10.5H14V9.5H12V10.5ZM14 11.5H12V12.5H14V11.5ZM12 11.5C11.7502 11.5 11.6131 11.4989 11.518 11.4862C11.4373 11.4753 11.4648 11.4648 11.5 11.5L10.7929 12.2071C10.9745 12.3887 11.1931 12.4515 11.3847 12.4772C11.562 12.5011 11.7784 12.5 12 12.5V11.5ZM10.5 11C10.5 11.2216 10.4989 11.438 10.5228 11.6153C10.5485 11.8069 10.6113 12.0255 10.7929 12.2071L11.5 11.5C11.5352 11.5352 11.5247 11.5627 11.5138 11.482C11.5011 11.3869 11.5 11.2498 11.5 11H10.5ZM14.5 11C14.5 11.2498 14.4989 11.3869 14.4862 11.482C14.4753 11.5627 14.4648 11.5352 14.5 11.5L15.2071 12.2071C15.3887 12.0255 15.4515 11.8069 15.4772 11.6153C15.5011 11.438 15.5 11.2216 15.5 11H14.5ZM14 12.5C14.2216 12.5 14.438 12.5011 14.6153 12.4772C14.8069 12.4515 15.0255 12.3887 15.2071 12.2071L14.5 11.5C14.5352 11.4648 14.5627 11.4753 14.482 11.4862C14.3869 11.4989 14.2498 11.5 14 11.5V12.5ZM14 10.5C14.2498 10.5 14.3869 10.5011 14.482 10.5138C14.5627 10.5247 14.5352 10.5352 14.5 10.5L15.2071 9.79289C15.0255 9.61129 14.8069 9.54852 14.6153 9.52276C14.438 9.49894 14.2216 9.5 14 9.5V10.5ZM15.5 11C15.5 10.7784 15.5011 10.562 15.4772 10.3847C15.4515 10.1931 15.3887 9.9745 15.2071 9.79289L14.5 10.5C14.4648 10.4648 14.4753 10.4373 14.4862 10.518C14.4989 10.6131 14.5 10.7502 14.5 11H15.5ZM12 9.5C11.7784 9.5 11.562 9.49894 11.3847 9.52276C11.1931 9.54852 10.9745 9.61129 10.7929 9.79289L11.5 10.5C11.4648 10.5352 11.4373 10.5247 11.518 10.5138C11.6131 10.5011 11.7502 10.5 12 10.5V9.5ZM11.5 11C11.5 10.7502 11.5011 10.6131 11.5138 10.518C11.5247 10.4373 11.5352 10.4648 11.5 10.5L10.7929 9.79289C10.6113 9.9745 10.5485 10.1931 10.5228 10.3847C10.4989 10.562 10.5 10.7784 10.5 11H11.5ZM12 14.5H14V13.5H12V14.5ZM14 15.5H12V16.5H14V15.5ZM12 15.5C11.7502 15.5 11.6131 15.4989 11.518 15.4862C11.4373 15.4753 11.4648 15.4648 11.5 15.5L10.7929 16.2071C10.9745 16.3887 11.1931 16.4515 11.3847 16.4772C11.562 16.5011 11.7784 16.5 12 16.5V15.5ZM10.5 15C10.5 15.2216 10.4989 15.438 10.5228 15.6153C10.5485 15.8069 10.6113 16.0255 10.7929 16.2071L11.5 15.5C11.5352 15.5352 11.5247 15.5627 11.5138 15.482C11.5011 15.3869 11.5 15.2498 11.5 15H10.5ZM14.5 15C14.5 15.2498 14.4989 15.3869 14.4862 15.482C14.4753 15.5627 14.4648 15.5352 14.5 15.5L15.2071 16.2071C15.3887 16.0255 15.4515 15.8069 15.4772 15.6153C15.5011 15.438 15.5 15.2216 15.5 15H14.5ZM14 16.5C14.2216 16.5 14.438 16.5011 14.6153 16.4772C14.8069 16.4515 15.0255 16.3887 15.2071 16.2071L14.5 15.5C14.5352 15.4648 14.5627 15.4753 14.482 15.4862C14.3869 15.4989 14.2498 15.5 14 15.5V16.5ZM14 14.5C14.2498 14.5 14.3869 14.5011 14.482 14.5138C14.5627 14.5247 14.5352 14.5352 14.5 14.5L15.2071 13.7929C15.0255 13.6113 14.8069 13.5485 14.6153 13.5228C14.438 13.4989 14.2216 13.5 14 13.5V14.5ZM15.5 15C15.5 14.7784 15.5011 14.562 15.4772 14.3847C15.4515 14.1931 15.3887 13.9745 15.2071 13.7929L14.5 14.5C14.4648 14.4648 14.4753 14.4373 14.4862 14.518C14.4989 14.6131 14.5 14.7502 14.5 15H15.5ZM12 13.5C11.7784 13.5 11.562 13.4989 11.3847 13.5228C11.1931 13.5485 10.9745 13.6113 10.7929 13.7929L11.5 14.5C11.4648 14.5352 11.4373 14.5247 11.518 14.5138C11.6131 14.5011 11.7502 14.5 12 14.5V13.5ZM11.5 15C11.5 14.7502 11.5011 14.6131 11.5138 14.518C11.5247 14.4373 11.5352 14.4648 11.5 14.5L10.7929 13.7929C10.6113 13.9745 10.5485 14.1931 10.5228 14.3847C10.4989 14.562 10.5 14.7784 10.5 15H11.5Z" fill="black"/>
</svg>
