<svg width="29" height="33" viewBox="0 0 29 33" fill="none" xmlns="http://www.w3.org/2000/svg">
<path d="M0 11.4011C0 6.02657 0 3.3393 1.59261 1.66965C3.18521 0 5.74848 0 10.875 0H18.125C23.2515 0 25.8148 0 27.4074 1.66965C29 3.3393 29 6.02657 29 11.4011V24.3748C29 29.4735 29 32.0229 27.4697 32.8027C25.9394 33.5824 24.0273 32.0074 20.2031 28.8572L18.9792 27.8491C16.8289 26.0778 15.7538 25.1922 14.5 25.1922C13.2462 25.1922 12.1711 26.0778 10.0208 27.8491L8.7969 28.8572C4.97268 32.0074 3.06056 33.5824 1.53028 32.8027C0 32.0229 0 29.4735 0 24.3748V11.4011Z" fill="url(#paint0_linear_477_1919)"/>
<path d="M10.479 20V18.7273L14.4165 14.6477C14.837 14.2045 15.1836 13.8163 15.4563 13.483C15.7328 13.1458 15.9393 12.8258 16.0756 12.5227C16.212 12.2197 16.2802 11.8977 16.2802 11.5568C16.2802 11.1705 16.1893 10.8371 16.0075 10.5568C15.8256 10.2727 15.5775 10.0549 15.2631 9.90341C14.9487 9.74811 14.5946 9.67045 14.2006 9.67045C13.784 9.67045 13.4203 9.75568 13.1097 9.92614C12.7991 10.0966 12.5605 10.3371 12.3938 10.6477C12.2271 10.9583 12.1438 11.322 12.1438 11.7386H10.4677C10.4677 11.0303 10.6306 10.411 10.9563 9.88068C11.2821 9.35038 11.729 8.93939 12.2972 8.64773C12.8654 8.35227 13.5112 8.20455 14.2347 8.20455C14.9658 8.20455 15.6097 8.35038 16.1665 8.64205C16.7271 8.92992 17.1646 9.32386 17.479 9.82386C17.7934 10.3201 17.9506 10.8807 17.9506 11.5057C17.9506 11.9375 17.8692 12.3598 17.7063 12.7727C17.5472 13.1856 17.2688 13.6458 16.8711 14.1534C16.4734 14.6572 15.9203 15.2689 15.212 15.9886L12.8995 18.4091V18.4943H18.1381V20H10.479Z" fill="#525252"/>
<defs>
<linearGradient id="paint0_linear_477_1919" x1="3.62493" y1="0.438504" x2="28.8492" y2="30.4083" gradientUnits="userSpaceOnUse">
<stop stop-color="#D9D9D9"/>
<stop offset="1" stop-color="#A7A7A7"/>
</linearGradient>
</defs>
</svg>
