<svg width="29" height="33" viewBox="0 0 29 33" fill="none" xmlns="http://www.w3.org/2000/svg">
<path d="M0 11.4011C0 6.02657 0 3.3393 1.59261 1.66965C3.18521 0 5.74848 0 10.875 0H18.125C23.2515 0 25.8148 0 27.4074 1.66965C29 3.3393 29 6.02657 29 11.4011V24.3748C29 29.4735 29 32.0229 27.4697 32.8027C25.9394 33.5824 24.0273 32.0074 20.2031 28.8572L18.9792 27.8491C16.8289 26.0778 15.7538 25.1922 14.5 25.1922C13.2462 25.1922 12.1711 26.0778 10.0208 27.8491L8.7969 28.8572C4.97268 32.0074 3.06056 33.5824 1.53028 32.8027C0 32.0229 0 29.4735 0 24.3748V11.4011Z" fill="url(#paint0_linear_477_1920)"/>
<path d="M14.7857 20.1591C14.0054 20.1591 13.3084 20.0246 12.6948 19.7557C12.085 19.4867 11.602 19.1136 11.2459 18.6364C10.8937 18.1553 10.7043 17.5985 10.6778 16.9659H12.4619C12.4846 17.3106 12.6001 17.6098 12.8084 17.8636C13.0206 18.1136 13.2971 18.3068 13.638 18.4432C13.9789 18.5795 14.3577 18.6477 14.7744 18.6477C15.2327 18.6477 15.638 18.5682 15.9903 18.4091C16.3463 18.25 16.6247 18.0284 16.8255 17.7443C17.0262 17.4564 17.1266 17.125 17.1266 16.75C17.1266 16.3598 17.0262 16.017 16.8255 15.7216C16.6285 15.4223 16.3387 15.1875 15.9562 15.017C15.5774 14.8466 15.1191 14.7614 14.5812 14.7614H13.5982V13.3295H14.5812C15.013 13.3295 15.3918 13.2519 15.7175 13.0966C16.0471 12.9413 16.3047 12.7254 16.4903 12.4489C16.6759 12.1686 16.7687 11.8409 16.7687 11.4659C16.7687 11.1061 16.6872 10.7936 16.5244 10.5284C16.3653 10.2595 16.138 10.0492 15.8425 9.89773C15.5509 9.74621 15.2062 9.67045 14.8084 9.67045C14.4297 9.67045 14.0755 9.74053 13.7459 9.88068C13.4202 10.017 13.155 10.214 12.9505 10.4716C12.7459 10.7254 12.6361 11.0303 12.6209 11.3864H10.9221C10.941 10.7576 11.1266 10.2045 11.4789 9.72727C11.835 9.25 12.3047 8.87689 12.888 8.60795C13.4713 8.33901 14.1191 8.20455 14.8312 8.20455C15.5774 8.20455 16.2213 8.35038 16.763 8.64205C17.3084 8.92992 17.7289 9.31439 18.0244 9.79545C18.3236 10.2765 18.4713 10.803 18.4675 11.375C18.4713 12.0265 18.2895 12.5795 17.9221 13.0341C17.5584 13.4886 17.0736 13.7936 16.4675 13.9489V14.0398C17.2403 14.1572 17.8387 14.464 18.263 14.9602C18.691 15.4564 18.9031 16.072 18.8994 16.8068C18.9031 17.447 18.7251 18.0208 18.3653 18.5284C18.0092 19.036 17.5225 19.4356 16.905 19.7273C16.2876 20.0152 15.5812 20.1591 14.7857 20.1591Z" fill="#590D00"/>
<defs>
<linearGradient id="paint0_linear_477_1920" x1="3.62493" y1="0.438504" x2="28.8492" y2="30.4083" gradientUnits="userSpaceOnUse">
<stop stop-color="#FFCA80"/>
<stop offset="1" stop-color="#A96800"/>
</linearGradient>
</defs>
</svg>
