<svg width="37" height="40" viewBox="0 0 37 40" fill="none" xmlns="http://www.w3.org/2000/svg">
<path d="M0 13.691C0 7.23699 0 4.00999 2.005 2.005C4.00999 0 7.23699 0 13.691 0H22.8183C29.2723 0 32.4993 0 34.5043 2.005C36.5093 4.00999 36.5093 7.23699 36.5093 13.691V29.2704C36.5093 35.3932 36.5093 38.4546 34.5827 39.391C32.6562 40.3273 30.249 38.4359 25.4345 34.6531L23.8937 33.4425C21.1866 31.3155 19.833 30.252 18.2546 30.252C16.6762 30.252 15.3227 31.3155 12.6156 33.4425L11.0748 34.6531C6.2603 38.4359 3.85307 40.3273 1.92653 39.391C0 38.4546 0 35.3932 0 29.2704V13.691Z" fill="url(#paint0_linear_477_1934)"/>
<path d="M20.0946 8.77388V23.3193H17.8929V10.9756H17.8077L14.3276 13.2483V11.146L17.9568 8.77388H20.0946Z" fill="#624700"/>
<defs>
<linearGradient id="paint0_linear_477_1934" x1="4.56357" y1="0.526576" x2="34.5784" y2="37.9135" gradientUnits="userSpaceOnUse">
<stop stop-color="#F4C650"/>
<stop offset="1" stop-color="#D49400"/>
</linearGradient>
</defs>
</svg>
