<svg width="112" height="51" viewBox="0 0 112 51" fill="none" xmlns="http://www.w3.org/2000/svg">
<rect width="112" height="51" rx="25.5" fill="#767676"/>
<path d="M39.5312 18.2656V23.625H41.7031V25.0469H39.5312V32.4062H37.7969V18.2656H39.5312ZM35.6562 19.6094V21.0156H30.7812V27.5C32.9766 27.5 34.7109 27.3906 36.6562 27.0469L36.8594 28.5156C34.6719 28.8906 32.7656 28.9531 30.2188 28.9531H29.0469V19.6094H35.6562ZM47.6406 21.6562C47.625 24.25 48.9844 26.8438 51.2812 27.8281L50.25 29.2188C48.625 28.4688 47.4297 26.9688 46.7812 25.125C46.1328 27.1172 44.9219 28.7422 43.2031 29.5469L42.1406 28.0938C44.5 27.0781 45.875 24.375 45.875 21.6562V19.4062H47.6406V21.6562ZM54.0469 18.2656V32.4062H52.2969V18.2656H54.0469ZM68.125 27.3438V32.3906H66.3906V28.7188H58.1719V27.3438H68.125ZM68.125 18.2656V26.6875H66.3906V18.2656H68.125ZM59.6875 20.9062C59.6875 22.0078 59.9531 23.4531 60.9219 24.4844C61.8359 23.4766 62.0781 22.0547 62.0938 20.9062V20.6562H61.2031V19.25H65.2656V20.6562H63.75V20.9062C63.75 22.4219 64.2969 24.1875 65.9062 25.0312L65 26.2656C63.9453 25.7031 63.2969 24.7734 62.9375 23.6875C62.5859 24.7969 61.9766 25.8047 60.9062 26.4062C59.8516 25.8047 59.2344 24.8125 58.8906 23.7344C58.5156 24.7969 57.8672 25.7188 56.8281 26.2656L55.9062 25.0312C57.5 24.1562 58.0781 22.4062 58.0781 20.9062V20.6562H56.4375V19.25H60.5938V20.6562H59.6875V20.9062ZM81.75 18.2656V32.3906H80V18.2656H81.75ZM77.5312 19.7656C77.5312 23.9688 75.9062 27.5469 70.9531 29.8906L70.0469 28.5C73.7422 26.7422 75.4609 24.3516 75.7656 21.1406H70.7656V19.7656H77.5312Z" fill="white"/>
</svg>
