<svg width="17" height="17" viewBox="0 0 17 17" fill="none" xmlns="http://www.w3.org/2000/svg">
<path d="M6.46997 8.9462L3.95319 8.10727C1.31774 7.22879 0 6.78954 0 5.98233C0 5.17512 1.31773 4.73588 3.95319 3.85739L13.4874 0.67931C15.3418 0.0611818 16.269 -0.247882 16.7584 0.24155C17.2479 0.730982 16.9388 1.65818 16.3207 3.51256L13.1426 13.0468C12.2641 15.6823 11.8249 17 11.0177 17C10.2105 17 9.77122 15.6823 8.89273 13.0468L8.0538 10.53L12.9295 5.65431C13.3669 5.21694 13.3669 4.50784 12.9295 4.07047C12.4922 3.63311 11.7831 3.63311 11.3457 4.07047L6.46997 8.9462Z" fill="black"/>
</svg>
