<svg width="15" height="16" viewBox="0 0 15 16" fill="none" xmlns="http://www.w3.org/2000/svg">
<path d="M7.5 15.5L6.75 13.25H1.5C1.0875 13.25 0.734375 13.1031 0.440625 12.8094C0.146875 12.5156 0 12.1625 0 11.75V2C0 1.5875 0.146875 1.23438 0.440625 0.940625C0.734375 0.646875 1.0875 0.5 1.5 0.5H6L6.65625 2.75H13.5C13.9375 2.75 14.2969 2.89062 14.5781 3.17188C14.8594 3.45312 15 3.8125 15 4.25V14C15 14.4125 14.8594 14.7656 14.5781 15.0594C14.2969 15.3531 13.9375 15.5 13.5 15.5H7.5ZM3.8625 9.95C4.725 9.95 5.43438 9.67188 5.99063 9.11563C6.54688 8.55938 6.825 7.8375 6.825 6.95C6.825 6.85 6.82188 6.75938 6.81563 6.67813C6.80938 6.59688 6.79375 6.5125 6.76875 6.425H3.80625V7.5875H5.475C5.375 7.9375 5.18437 8.20938 4.90312 8.40313C4.62187 8.59688 4.28125 8.69375 3.88125 8.69375C3.39375 8.69375 2.975 8.51875 2.625 8.16875C2.275 7.81875 2.1 7.3875 2.1 6.875C2.1 6.3625 2.275 5.93125 2.625 5.58125C2.975 5.23125 3.39375 5.05625 3.88125 5.05625C4.10625 5.05625 4.31875 5.09688 4.51875 5.17813C4.71875 5.25938 4.9 5.38125 5.0625 5.54375L5.98125 4.6625C5.71875 4.3875 5.40313 4.175 5.03438 4.025C4.66563 3.875 4.275 3.8 3.8625 3.8C3.025 3.8 2.30938 4.09688 1.71563 4.69063C1.12188 5.28438 0.825 6.0125 0.825 6.875C0.825 7.7375 1.12188 8.46563 1.71563 9.05938C2.30938 9.65313 3.025 9.95 3.8625 9.95ZM8.8875 10.325L9.3 9.93125C9.125 9.71875 8.96562 9.5125 8.82187 9.3125C8.67812 9.1125 8.5375 8.9 8.4 8.675L8.8875 10.325ZM9.825 9.36875C10.175 8.95625 10.4406 8.5625 10.6219 8.1875C10.8031 7.8125 10.925 7.51875 10.9875 7.30625H8.00625L8.23125 8.09375H8.98125C9.08125 8.28125 9.2 8.48438 9.3375 8.70312C9.475 8.92188 9.6375 9.14375 9.825 9.36875ZM8.25 14.75H13.5C13.725 14.75 13.9063 14.6781 14.0438 14.5344C14.1813 14.3906 14.25 14.2125 14.25 14V4.25C14.25 4.025 14.1813 3.84375 14.0438 3.70625C13.9063 3.56875 13.725 3.5 13.5 3.5H6.88125L7.7625 6.5375H9.24375V5.75H10.0125V6.5375H12.75V7.30625H11.7938C11.6688 7.78125 11.4813 8.24375 11.2313 8.69375C10.9813 9.14375 10.6875 9.5625 10.35 9.95L12.3937 11.9563L11.85 12.5L9.825 10.475L9.15 11.1688L9.75 13.25L8.25 14.75Z" fill="#D9D9D9"/>
</svg>
